<?xml version="1.0" encoding="UTF-8"?>
<svg width="168px" height="50px" viewBox="0 0 168 50" version="1.1" xmlns="http://www.w3.org/2000/svg" xmlns:xlink="http://www.w3.org/1999/xlink">
    <title>Group 34</title>
    <defs>
        <polygon id="path-1" points="0 49.9268908 167.813566 49.9268908 167.813566 -1.18423789e-14 0 -1.18423789e-14"></polygon>
    </defs>
    <g id="Symbols" stroke="none" stroke-width="1" fill="none" fill-rule="evenodd">
        <g id="Footer" transform="translate(-51.000000, -16.000000)">
            <g id="Group-34" transform="translate(51.000000, 16.000000)">
                <path d="M62.1403092,39.7033613 L62.1403092,42.7285714 L62.1738254,42.7285714 C62.3757606,42.3911765 62.6338354,42.1453782 62.9476309,41.9920168 C63.2618454,41.8382353 63.5680998,41.7613445 63.8672319,41.7613445 C64.2937257,41.7613445 64.6431322,41.8193277 64.9158703,41.9357143 C65.1886085,42.0521008 65.4039501,42.2134454 65.5606384,42.4193277 C65.7177456,42.6256303 65.8279302,42.8768908 65.891611,43.1731092 C65.9548728,43.4693277 65.9871322,43.7970588 65.9871322,44.1571429 L65.9871322,47.7336134 L64.3942743,47.7336134 L64.3942743,44.4495798 C64.3942743,43.9697479 64.3197007,43.6117647 64.1701347,43.3752101 C64.0205686,43.1394958 63.7549526,43.0210084 63.3737057,43.0210084 C62.9400898,43.0210084 62.6262943,43.1504202 62.4319002,43.4088235 C62.2375062,43.6680672 62.1403092,44.0932773 62.1403092,44.6852941 L62.1403092,47.7336134 L60.5478703,47.7336134 L60.5478703,39.7033613 L62.1403092,39.7033613 Z" id="Fill-1" fill="#FEFEFE"></path>
                <path d="M68.5661626,45.5122269 C68.6109905,45.7332353 68.6876589,45.932395 68.7961676,46.1084454 C68.9042574,46.2844958 69.0483771,46.4252521 69.2276888,46.5302941 C69.4070005,46.6353361 69.6315591,46.6878571 69.9005267,46.6878571 C70.1699132,46.6878571 70.3957287,46.6353361 70.5792299,46.5302941 C70.7623122,46.4252521 70.9081077,46.2844958 71.0166165,46.1084454 C71.1247062,45.932395 71.2017935,45.7332353 71.2462025,45.5122269 C71.2910304,45.2912185 71.3136539,45.0643277 71.3136539,44.8319748 C71.3136539,44.5996218 71.2910304,44.3706303 71.2462025,44.1458403 C71.2017935,43.9210504 71.1247062,43.7223109 71.0166165,43.5496218 C70.9081077,43.3773529 70.7623122,43.2365966 70.5792299,43.1277731 C70.3957287,43.0189496 70.1699132,42.9651681 69.9005267,42.9651681 C69.6315591,42.9651681 69.4070005,43.0189496 69.2276888,43.1277731 C69.0483771,43.2365966 68.9042574,43.3773529 68.7961676,43.5496218 C68.6876589,43.7223109 68.6109905,43.9210504 68.5661626,44.1458403 C68.5213347,44.3706303 68.4987112,44.5996218 68.4987112,44.8319748 C68.4987112,45.0643277 68.5213347,45.2912185 68.5661626,45.5122269 M67.1195192,43.5664286 C67.2615441,43.1882773 67.4630603,42.8655882 67.7249057,42.5992017 C67.9867511,42.3332353 68.3005466,42.1269328 68.6671302,41.9807143 C69.0332948,41.8344958 69.4447062,41.7613866 69.9005267,41.7613866 C70.3563471,41.7613866 70.7698534,41.8344958 71.1397885,41.9807143 C71.5097237,42.1269328 71.825614,42.3332353 72.0874594,42.5992017 C72.3488858,42.8655882 72.5508209,43.1882773 72.6932648,43.5664286 C72.8348708,43.9454202 72.9060928,44.3668487 72.9060928,44.8319748 C72.9060928,45.2966807 72.8348708,45.7164286 72.6932648,46.0916387 C72.5508209,46.4664286 72.3488858,46.7870168 72.0874594,47.0529832 C71.825614,47.3193697 71.5097237,47.5235714 71.1397885,47.6660084 C70.7698534,47.8084454 70.3563471,47.8798739 69.9005267,47.8798739 C69.4447062,47.8798739 69.0332948,47.8084454 68.6671302,47.6660084 C68.3005466,47.5235714 67.9867511,47.3193697 67.7249057,47.0529832 C67.4630603,46.7870168 67.2615441,46.4664286 67.1195192,46.0916387 C66.9774943,45.7164286 66.9062723,45.2966807 66.9062723,44.8319748 C66.9062723,44.3668487 66.9774943,43.9454202 67.1195192,43.5664286" id="Fill-3" fill="#FEFEFE"></path>
                <path d="M75.3733466,41.9186555 L75.3733466,42.7060504 L75.3955511,42.7060504 C75.6050274,42.4064706 75.8572369,42.1736975 76.1525985,42.0089916 C76.4479601,41.8438655 76.7864738,41.7615126 77.1677207,41.7615126 C77.5338853,41.7615126 77.8686284,41.8329412 78.1715312,41.9753782 C78.474015,42.1178151 78.70402,42.3686555 78.8611272,42.7287395 C79.0328978,42.4736975 79.2662544,42.2489076 79.5620349,42.0535294 C79.8573965,41.8585714 80.206803,41.7615126 80.6102544,41.7615126 C80.9169277,41.7615126 81.2009776,41.7989076 81.4628229,41.8741176 C81.7242494,41.9489076 81.948808,42.0686555 82.1356608,42.2337815 C82.3225137,42.3989076 82.4683092,42.6144538 82.5730474,42.8804202 C82.6777855,43.1468067 82.7301546,43.467395 82.7301546,43.8421849 L82.7301546,47.7337815 L81.1377157,47.7337815 L81.1377157,44.4379832 C81.1377157,44.2430252 81.1301746,44.0598319 81.1150923,43.8871429 C81.10001,43.7144538 81.0589526,43.5648739 80.9919202,43.4371429 C80.9244688,43.3098319 80.8251771,43.2085714 80.6944638,43.1337815 C80.5637506,43.0585714 80.3861147,43.0211765 80.1619751,43.0211765 C79.9378354,43.0211765 79.75601,43.0644538 79.6181746,43.1505882 C79.4795012,43.2367227 79.3709925,43.3489076 79.2926484,43.487563 C79.2143042,43.6266387 79.1619352,43.7837815 79.1355411,43.9598319 C79.1095661,44.1363025 79.0965786,44.3144538 79.0965786,44.4942857 L79.0965786,47.7337815 L77.5041397,47.7337815 L77.5041397,44.4720168 C77.5041397,44.2997479 77.5003691,44.1291597 77.4928279,43.9598319 C77.4852868,43.7913445 77.4534464,43.6358824 77.3977257,43.4934454 C77.341586,43.3510084 77.2477406,43.2367227 77.1170274,43.1505882 C76.9863142,43.0644538 76.793596,43.0211765 76.5397107,43.0211765 C76.4647182,43.0211765 76.3658454,43.0379832 76.2422544,43.0715966 C76.1190823,43.1052101 75.9992618,43.1694958 75.8836309,43.2627731 C75.767581,43.3568908 75.6687082,43.4917647 75.5861746,43.6678151 C75.5040599,43.8438655 75.4630025,44.0745378 75.4630025,44.3598319 L75.4630025,47.7337815 L73.8705636,47.7337815 L73.8705636,41.9186555 L75.3733466,41.9186555 Z" id="Fill-5" fill="#FEFEFE"></path>
                <path d="M87.3781406,43.2797059 C87.1875172,43.070042 86.8980209,42.965 86.5092329,42.965 C86.2545097,42.965 86.0433576,43.0082773 85.8753576,43.0944118 C85.7073576,43.1805462 85.5724549,43.2876891 85.4714873,43.4145798 C85.3709387,43.5423109 85.2997167,43.6771849 85.2586594,43.8196218 C85.217602,43.9620588 85.1928838,44.0897899 85.1857616,44.2019748 L87.7761456,44.2019748 C87.7011531,43.7969328 87.5687641,43.4897899 87.3781406,43.2797059 M85.5783202,46.3389496 C85.8171232,46.5713025 86.1615022,46.6876891 86.6102005,46.6876891 C86.9315372,46.6876891 87.2080459,46.6070168 87.4397267,46.4456723 C87.6714075,46.2843277 87.8138514,46.1141597 87.8662204,45.9339076 L89.2680359,45.9339076 C89.0438963,46.6318067 88.6995172,47.1301261 88.2361556,47.4301261 C87.7723751,47.7301261 87.2118165,47.8797059 86.5540608,47.8797059 C86.0978214,47.8797059 85.6868289,47.8065966 85.3202454,47.6607983 C84.9540808,47.5141597 84.6436369,47.3061765 84.3897516,47.0360084 C84.1354474,46.7662605 83.9393776,46.4439916 83.8007042,46.0692017 C83.6624499,45.6939916 83.5933227,45.2818067 83.5933227,44.8318067 C83.5933227,44.3969328 83.6645446,43.9918908 83.8065696,43.6171008 C83.9481756,43.2423109 84.1501107,42.9183613 84.4119561,42.6439916 C84.6738015,42.3708824 84.9859212,42.154916 85.3483152,41.9973529 C85.7111282,41.8402101 86.1124848,41.7616387 86.5540608,41.7616387 C87.047587,41.7616387 87.4770135,41.8570168 87.843597,42.0481933 C88.2097616,42.2393697 88.5109885,42.4965126 88.7464399,42.8183613 C88.9818913,43.1410504 89.1515671,43.5086975 89.2567242,43.9208824 C89.3610434,44.3334874 89.3983302,44.7641597 89.3690035,45.2141597 L85.1857616,45.2141597 C85.2079661,45.7318067 85.3390983,46.1070168 85.5783202,46.3389496" id="Fill-7" fill="#FEFEFE"></path>
                <path d="M97.3761097,44.1233193 C97.3237406,43.8985294 97.2416259,43.6997899 97.1293466,43.5271008 C97.0174863,43.3548319 96.8771372,43.2178571 96.7087182,43.1165966 C96.5407182,43.0153361 96.3366883,42.964916 96.0974663,42.964916 C95.8657855,42.964916 95.6638504,43.0153361 95.4920798,43.1165966 C95.3198903,43.2178571 95.1778653,43.3548319 95.065586,43.5271008 C94.9537257,43.6997899 94.871192,43.8985294 94.8188229,44.1233193 C94.7664539,44.3481092 94.7404788,44.5846639 94.7404788,44.8321429 C94.7404788,45.0720588 94.7664539,45.3044118 94.8188229,45.5292017 C94.871192,45.7539916 94.9537257,45.9527311 95.065586,46.1254202 C95.1778653,46.2981092 95.3198903,46.4346639 95.4920798,46.5359244 C95.6638504,46.6367647 95.8657855,46.6880252 96.0974663,46.6880252 C96.3366883,46.6880252 96.5407182,46.6367647 96.7087182,46.5359244 C96.8771372,46.4346639 97.0174863,46.2981092 97.1293466,46.1254202 C97.2416259,45.9527311 97.3237406,45.7539916 97.3761097,45.5292017 C97.4280599,45.3044118 97.4544539,45.0720588 97.4544539,44.8321429 C97.4544539,44.5846639 97.4280599,44.3481092 97.3761097,44.1233193 L97.3761097,44.1233193 Z M94.7966185,39.7031513 L94.7966185,42.6271008 L94.8188229,42.6271008 C95.013217,42.3279412 95.2767382,42.1081933 95.6093865,41.9695378 C95.9420349,41.8308824 96.2880898,41.7615546 96.6471322,41.7615546 C96.9387232,41.7615546 97.2265436,41.8212185 97.5105935,41.9413866 C97.7946434,42.0615546 98.0506234,42.2447479 98.2785337,42.4922269 C98.5064439,42.7397059 98.6920399,43.0569328 98.8336459,43.4430672 C98.9756708,43.8292017 99.0468928,44.2884454 99.0468928,44.8203782 C99.0468928,45.3531513 98.9756708,45.812395 98.8336459,46.1981092 C98.6920399,46.5846639 98.5064439,46.9010504 98.2785337,47.1485294 C98.0506234,47.3960084 97.7946434,47.580042 97.5105935,47.7002101 C97.2265436,47.819958 96.9387232,47.8796218 96.6471322,47.8796218 C96.2206384,47.8796218 95.8393915,47.812395 95.5029726,47.677521 C95.1669726,47.5426471 94.9122494,47.3140756 94.7404788,46.9913866 L94.7178554,46.9913866 L94.7178554,47.7338235 L93.2041796,47.7338235 L93.2041796,39.7031513 L94.7966185,39.7031513 Z" id="Fill-9" fill="#FEFEFE"></path>
                <path d="M103.869079,47.7337395 L103.869079,46.9236555 L103.835563,46.9236555 C103.633628,47.2614706 103.371783,47.5051681 103.050446,47.6551681 C102.72869,47.8047479 102.399812,47.879958 102.063394,47.879958 C101.637319,47.879958 101.287912,47.8236555 101.015174,47.7110504 C100.742017,47.5988655 100.527094,47.4396218 100.369987,47.2333193 C100.21288,47.0270168 100.102695,46.7761765 100.039014,46.4795378 C99.9757526,46.1837395 99.9439122,45.8551681 99.9439122,45.4955042 L99.9439122,41.9186134 L101.53677,41.9186134 L101.53677,45.2030672 C101.53677,45.6828992 101.610925,46.0408824 101.76091,46.2770168 C101.910057,46.5135714 102.175673,46.6316387 102.55692,46.6316387 C102.990536,46.6316387 103.304331,46.5018067 103.499144,46.2434034 C103.693538,45.9845798 103.790735,45.5593697 103.790735,44.9669328 L103.790735,41.9186134 L105.383174,41.9186134 L105.383174,47.7337395 L103.869079,47.7337395 Z" id="Fill-11" fill="#FEFEFE"></path>
                <mask id="mask-2" fill="white">
                    <use xlink:href="#path-1"></use>
                </mask>
                <g id="Clip-14"></g>
                <path d="M106.526663,47.7336134 L108.119102,47.7336134 L108.119102,41.9184874 L106.526663,41.9184874 L106.526663,47.7336134 Z M106.526663,41.0193277 L108.119102,41.0193277 L108.119102,39.7033613 L106.526663,39.7033613 L106.526663,41.0193277 Z" id="Fill-13" fill="#FEFEFE" mask="url(#mask-2)"></path>
                <polygon id="Fill-15" fill="#FEFEFE" mask="url(#mask-2)" points="109.30809 47.7336134 110.900529 47.7336134 110.900529 39.7033613 109.30809 39.7033613"></polygon>
                <path d="M116.092734,44.117563 C116.048325,43.8965546 115.971238,43.7015966 115.862729,43.5326891 C115.75422,43.3642017 115.61429,43.2276471 115.44252,43.1221849 C115.27033,43.017563 115.053732,42.965042 114.792305,42.965042 C114.53046,42.965042 114.309672,43.017563 114.13036,43.1221849 C113.951048,43.2276471 113.806929,43.3658824 113.69842,43.5385714 C113.589911,43.7108403 113.511567,43.9078992 113.463388,44.1289076 C113.41437,44.3503361 113.390071,44.5810084 113.390071,44.8205042 C113.390071,45.0457143 113.416046,45.2705042 113.468415,45.4952941 C113.520784,45.720084 113.605412,45.9209244 113.721043,46.097395 C113.836674,46.2734454 113.98247,46.4158824 114.15843,46.5247059 C114.333971,46.6331092 114.545542,46.6877311 114.792305,46.6877311 C115.053732,46.6877311 115.272425,46.6352101 115.447966,46.5301681 C115.623507,46.4251261 115.763856,46.2843697 115.868595,46.1083193 C115.973333,45.9322689 116.048325,45.7318487 116.092734,45.5066387 C116.137562,45.2818487 116.160186,45.0494958 116.160186,44.8091597 C116.160186,44.5692437 116.137562,44.3385714 116.092734,44.117563 L116.092734,44.117563 Z M116.160186,46.9915126 C115.973333,47.3062185 115.728664,47.5331092 115.425343,47.6717647 C115.122859,47.8104202 114.780575,47.8797479 114.399328,47.8797479 C113.965712,47.8797479 113.584465,47.7957143 113.256006,47.6268067 C112.92629,47.4578992 112.655647,47.2293277 112.4424,46.9406723 C112.229153,46.6520168 112.068694,46.320084 111.960604,45.9452941 C111.851677,45.5705042 111.797632,45.1805882 111.797632,44.7755462 C111.797632,44.3860504 111.851677,44.0091597 111.960604,43.6452941 C112.068694,43.2818487 112.229153,42.9612605 112.4424,42.6835294 C112.655647,42.4066387 112.922939,42.1831092 113.244275,42.0142017 C113.566031,41.8457143 113.939737,41.7616807 114.365811,41.7616807 C114.709353,41.7616807 115.036555,41.8343697 115.347417,41.9805882 C115.657442,42.1272269 115.902111,42.3423529 116.081841,42.6272269 L116.104046,42.6272269 L116.104046,39.7032773 L117.696485,39.7032773 L117.696485,47.7335294 L116.182809,47.7335294 L116.182809,46.9915126 L116.160186,46.9915126 Z" id="Fill-16" fill="#FEFEFE" mask="url(#mask-2)"></path>
                <path d="M118.828788,47.7336134 L120.421227,47.7336134 L120.421227,41.9184874 L118.828788,41.9184874 L118.828788,47.7336134 Z M118.829207,41.0193277 L120.421646,41.0193277 L120.421646,39.7033613 L118.829207,39.7033613 L118.829207,41.0193277 Z" id="Fill-17" fill="#FEFEFE" mask="url(#mask-2)"></path>
                <path d="M123.079523,41.9186555 L123.079523,42.7287395 L123.113039,42.7287395 C123.314975,42.3913445 123.57682,42.1455462 123.898157,41.9921849 C124.219493,41.8384034 124.548371,41.7615126 124.885209,41.7615126 C125.310865,41.7615126 125.660271,41.8194958 125.933428,41.9358824 C126.206167,42.0518487 126.421508,42.2131933 126.578615,42.4190756 C126.735304,42.6257983 126.845488,42.8766387 126.909169,43.1728571 C126.972431,43.4690756 127.004271,43.7972269 127.004271,44.1568908 L127.004271,47.7337815 L125.411832,47.7337815 L125.411832,44.4493277 C125.411832,43.969916 125.337259,43.6115126 125.187693,43.3753782 C125.038127,43.1392437 124.77293,43.0211765 124.391683,43.0211765 C123.958067,43.0211765 123.643852,43.1505882 123.449458,43.4089916 C123.255064,43.6678151 123.157867,44.0934454 123.157867,44.6854622 L123.157867,47.7337815 L121.565428,47.7337815 L121.565428,41.9186555 L123.079523,41.9186555 Z" id="Fill-18" fill="#FEFEFE" mask="url(#mask-2)"></path>
                <path d="M131.400467,46.2265966 C131.572237,46.1362605 131.714262,46.0165126 131.826542,45.8669328 C131.938821,45.7165126 132.022611,45.5459244 132.078751,45.3547479 C132.134891,45.1635714 132.162961,44.9631513 132.162961,44.7530672 C132.162961,44.5131513 132.140756,44.2862605 132.095509,44.0728151 C132.0511,43.8589496 131.976108,43.6698739 131.87137,43.5043277 C131.766631,43.340042 131.628377,43.2085294 131.456606,43.1110504 C131.284417,43.0139916 131.067818,42.9648319 130.805973,42.9648319 C130.581833,42.9648319 130.389115,43.0097899 130.228237,43.1001261 C130.06736,43.1896218 129.932876,43.3118908 129.824786,43.4652521 C129.716277,43.6190336 129.637933,43.7955042 129.589335,43.9942437 C129.540736,44.192563 129.516437,44.4005462 129.516437,44.6181933 C129.516437,44.8282773 129.536966,45.0362605 129.578023,45.2421429 C129.61908,45.4484454 129.690302,45.6341597 129.790851,45.7988655 C129.891818,45.9639916 130.024626,46.0988655 130.189275,46.2039076 C130.353504,46.3089496 130.55921,46.3614706 130.805973,46.3614706 C131.030113,46.3614706 131.228277,46.3165126 131.400467,46.2265966 M133.581534,48.1610504 C133.518272,48.4606303 133.381694,48.740042 133.172217,48.9988655 C132.962741,49.2576891 132.660257,49.4770168 132.264347,49.6568487 C131.867599,49.8371008 131.336786,49.9270168 130.671489,49.9270168 C130.387439,49.9270168 130.097943,49.8913025 129.802582,49.8202941 C129.506801,49.7488655 129.237833,49.6379412 128.994841,49.4883613 C128.751848,49.3383613 128.549913,49.145084 128.389454,48.9089496 C128.228577,48.6728151 128.136826,48.3896218 128.114621,48.0597899 L129.695749,48.0597899 C129.770322,48.3593697 129.916118,48.5673529 130.133135,48.6841597 C130.349734,48.8001261 130.600267,48.8585294 130.884736,48.8585294 C131.333015,48.8585294 131.660217,48.7232353 131.865504,48.4534874 C132.071629,48.1833193 132.170502,47.8421429 132.162961,47.429958 L132.162961,46.6652521 L132.140756,46.6652521 C131.968148,46.972395 131.723479,47.1992857 131.406332,47.3455042 C131.088347,47.4917227 130.753604,47.5652521 130.402103,47.5652521 C129.968487,47.5652521 129.594781,47.4879412 129.280567,47.3345798 C128.966771,47.1807983 128.708696,46.9707143 128.50718,46.7047479 C128.305245,46.4383613 128.157774,46.127437 128.063928,45.7711345 C127.970502,45.4148319 127.923998,45.0383613 127.923998,44.6408824 C127.923998,44.2656723 127.978043,43.9039076 128.086552,43.5555882 C128.19506,43.2068487 128.353843,42.8992857 128.56332,42.6328992 C128.772377,42.3669328 129.032547,42.1551681 129.342572,41.997605 C129.652597,41.8404622 130.009963,41.7614706 130.413833,41.7614706 C130.79508,41.7614706 131.129404,41.8328992 131.417225,41.9753361 C131.705045,42.1177731 131.946362,42.3572689 132.140756,42.695084 L132.162961,42.695084 L132.162961,41.9186134 L133.677055,41.9186134 L133.677055,47.3623109 C133.677055,47.595084 133.644796,47.8610504 133.581534,48.1610504" id="Fill-19" fill="#FEFEFE" mask="url(#mask-2)"></path>
                <path d="M141.14564,46.2265966 C141.31741,46.1362605 141.459435,46.0165126 141.571715,45.8669328 C141.683994,45.7165126 141.767785,45.5459244 141.823924,45.3547479 C141.880064,45.1635714 141.908134,44.9631513 141.908134,44.7530672 C141.908134,44.5131513 141.885929,44.2862605 141.840682,44.0728151 C141.796273,43.8589496 141.721281,43.6698739 141.616543,43.5043277 C141.511804,43.340042 141.37355,43.2085294 141.20178,43.1110504 C141.02959,43.0139916 140.812992,42.9648319 140.551146,42.9648319 C140.327006,42.9648319 140.134288,43.0097899 139.97341,43.1001261 C139.812533,43.1896218 139.678049,43.3118908 139.569959,43.4652521 C139.46145,43.6190336 139.383106,43.7955042 139.334508,43.9942437 C139.285909,44.192563 139.26161,44.4005462 139.26161,44.6181933 C139.26161,44.8282773 139.282139,45.0362605 139.323196,45.2421429 C139.364253,45.4484454 139.435475,45.6341597 139.536024,45.7988655 C139.636992,45.9639916 139.7698,46.0988655 139.934448,46.2039076 C140.098677,46.3089496 140.304383,46.3614706 140.551146,46.3614706 C140.775286,46.3614706 140.97345,46.3165126 141.14564,46.2265966 M143.326707,48.1610504 C143.263445,48.4606303 143.126867,48.740042 142.917391,48.9988655 C142.707914,49.2576891 142.40543,49.4770168 142.00952,49.6568487 C141.612772,49.8371008 141.081959,49.9270168 140.416662,49.9270168 C140.132612,49.9270168 139.843116,49.8913025 139.547755,49.8202941 C139.251974,49.7488655 138.983006,49.6379412 138.740014,49.4883613 C138.497021,49.3383613 138.295086,49.145084 138.134627,48.9089496 C137.97375,48.6728151 137.881999,48.3896218 137.859795,48.0597899 L139.440922,48.0597899 C139.515495,48.3593697 139.661291,48.5673529 139.878308,48.6841597 C140.094907,48.8001261 140.34544,48.8585294 140.629909,48.8585294 C141.078189,48.8585294 141.405391,48.7232353 141.610677,48.4534874 C141.816802,48.1833193 141.915675,47.8421429 141.908134,47.429958 L141.908134,46.6652521 L141.885929,46.6652521 C141.713321,46.972395 141.468652,47.1992857 141.151505,47.3455042 C140.83352,47.4917227 140.498777,47.5652521 140.147276,47.5652521 C139.71366,47.5652521 139.339954,47.4879412 139.02574,47.3345798 C138.711944,47.1807983 138.453869,46.9707143 138.252353,46.7047479 C138.050418,46.4383613 137.902947,46.127437 137.809101,45.7711345 C137.715675,45.4148319 137.669171,45.0383613 137.669171,44.6408824 C137.669171,44.2656723 137.723216,43.9039076 137.831725,43.5555882 C137.940233,43.2068487 138.099016,42.8992857 138.308493,42.6328992 C138.51755,42.3669328 138.77772,42.1551681 139.087745,41.997605 C139.39777,41.8404622 139.755136,41.7614706 140.159006,41.7614706 C140.540253,41.7614706 140.874578,41.8328992 141.162398,41.9753361 C141.450218,42.1177731 141.691535,42.3572689 141.885929,42.695084 L141.908134,42.695084 L141.908134,41.9186134 L143.422228,41.9186134 L143.422228,47.3623109 C143.422228,47.595084 143.389969,47.8610504 143.326707,48.1610504" id="Fill-20" fill="#FEFEFE" mask="url(#mask-2)"></path>
                <path d="M146.102687,41.9186555 L146.102687,42.9984874 L146.124892,42.9984874 C146.199465,42.8186555 146.300852,42.6518487 146.427795,42.4980672 C146.554737,42.3447059 146.700533,42.2131933 146.865181,42.1043697 C147.02941,41.9959664 147.205371,41.9110924 147.392223,41.8514286 C147.578657,41.7913445 147.77347,41.7615126 147.975405,41.7615126 C148.080144,41.7615126 148.195775,41.7804202 148.323136,41.8178151 L148.323136,43.3022689 C148.248144,43.287563 148.158488,43.2741176 148.05375,43.2627731 C147.949011,43.2518487 147.848044,43.2459664 147.751266,43.2459664 C147.459256,43.2459664 147.212493,43.2947059 147.010977,43.3921849 C146.809041,43.4896639 146.646488,43.6228571 146.523316,43.7913445 C146.399725,43.9598319 146.311745,44.1568908 146.259376,44.3816807 C146.207006,44.6068908 146.181031,44.8510084 146.181031,45.1131933 L146.181031,47.7337815 L144.588593,47.7337815 L144.588593,41.9186555 L146.102687,41.9186555 Z" id="Fill-21" fill="#FEFEFE" mask="url(#mask-2)"></path>
                <path d="M150.117091,45.5122269 C150.161919,45.7332353 150.238588,45.932395 150.347096,46.1084454 C150.455605,46.2844958 150.599306,46.4252521 150.779036,46.5302941 C150.958348,46.6353361 151.182488,46.6878571 151.451874,46.6878571 C151.720842,46.6878571 151.947076,46.6353361 152.130578,46.5302941 C152.313241,46.4252521 152.459036,46.2844958 152.567964,46.1084454 C152.675635,45.932395 152.752722,45.7332353 152.79755,45.5122269 C152.842378,45.2912185 152.865001,45.0643277 152.865001,44.8319748 C152.865001,44.5996218 152.842378,44.3706303 152.79755,44.1458403 C152.752722,43.9210504 152.675635,43.7223109 152.567964,43.5496218 C152.459036,43.3773529 152.313241,43.2365966 152.130578,43.1277731 C151.947076,43.0189496 151.720842,42.9651681 151.451874,42.9651681 C151.182488,42.9651681 150.958348,43.0189496 150.779036,43.1277731 C150.599306,43.2365966 150.455605,43.3773529 150.347096,43.5496218 C150.238588,43.7223109 150.161919,43.9210504 150.117091,44.1458403 C150.072682,44.3706303 150.050059,44.5996218 150.050059,44.8319748 C150.050059,45.0643277 150.072682,45.2912185 150.117091,45.5122269 M148.670448,43.5664286 C148.812473,43.1882773 149.014408,42.8655882 149.276253,42.5992017 C149.53768,42.3332353 149.851894,42.1269328 150.218059,41.9807143 C150.584223,41.8344958 150.995635,41.7613866 151.451874,41.7613866 C151.907695,41.7613866 152.321201,41.8344958 152.691136,41.9807143 C153.061071,42.1269328 153.376543,42.3332353 153.638388,42.5992017 C153.900233,42.8655882 154.102169,43.1882773 154.244194,43.5664286 C154.3858,43.9454202 154.457021,44.3668487 154.457021,44.8319748 C154.457021,45.2966807 154.3858,45.7164286 154.244194,46.0916387 C154.102169,46.4664286 153.900233,46.7870168 153.638388,47.0529832 C153.376543,47.3193697 153.061071,47.5235714 152.691136,47.6660084 C152.321201,47.8084454 151.907695,47.8798739 151.451874,47.8798739 C150.995635,47.8798739 150.584223,47.8084454 150.218059,47.6660084 C149.851894,47.5235714 149.53768,47.3193697 149.276253,47.0529832 C149.014408,46.7870168 148.812473,46.4664286 148.670448,46.0916387 C148.528423,45.7164286 148.45762,45.2966807 148.45762,44.8319748 C148.45762,44.3668487 148.528423,43.9454202 148.670448,43.5664286" id="Fill-22" fill="#FEFEFE" mask="url(#mask-2)"></path>
                <path d="M159.302125,47.7337395 L159.302125,46.9236555 L159.268608,46.9236555 C159.066673,47.2614706 158.804828,47.5051681 158.483491,47.6551681 C158.161736,47.8047479 157.832858,47.879958 157.496439,47.879958 C157.070364,47.879958 156.720958,47.8236555 156.448219,47.7110504 C156.175062,47.5988655 155.96014,47.4396218 155.803032,47.2333193 C155.645925,47.0270168 155.535741,46.7761765 155.47206,46.4795378 C155.408798,46.1837395 155.376958,45.8551681 155.376958,45.4955042 L155.376958,41.9186134 L156.969397,41.9186134 L156.969397,45.2030672 C156.969397,45.6828992 157.04397,46.0408824 157.193955,46.2770168 C157.343102,46.5135714 157.608718,46.6316387 157.989965,46.6316387 C158.423162,46.6316387 158.737377,46.5018067 158.931771,46.2434034 C159.126165,45.9845798 159.223781,45.5593697 159.223781,44.9669328 L159.223781,41.9186134 L160.8158,41.9186134 L160.8158,47.7337395 L159.302125,47.7337395 Z" id="Fill-23" fill="#FEFEFE" mask="url(#mask-2)"></path>
                <path d="M165.498057,46.5302521 C165.673598,46.4252101 165.815623,46.2882353 165.924132,46.1193277 C166.032221,45.9508403 166.109309,45.7537815 166.153718,45.5289916 C166.198965,45.3042017 166.221588,45.0756303 166.221588,44.8428571 C166.221588,44.6109244 166.19687,44.3819328 166.14869,44.1571429 C166.100092,43.9319328 166.019234,43.7315126 165.907374,43.5554622 C165.795094,43.3794118 165.650975,43.2365546 165.475433,43.1277311 C165.299473,43.0193277 165.08497,42.9651261 164.830665,42.9651261 C164.56882,42.9651261 164.350546,43.0193277 164.174586,43.1277311 C163.999044,43.2365546 163.8566,43.3773109 163.748511,43.5495798 C163.640002,43.7222689 163.563753,43.9210084 163.518506,44.1457983 C163.473678,44.3705882 163.451054,44.6033613 163.451054,44.8428571 C163.451054,45.0756303 163.475773,45.3042017 163.524371,45.5289916 C163.572551,45.7537815 163.651314,45.9508403 163.759822,46.1193277 C163.867912,46.2882353 164.012032,46.4252101 164.191763,46.5302521 C164.371074,46.6352941 164.587673,46.6878151 164.841977,46.6878151 C165.103822,46.6878151 165.322097,46.6352941 165.498057,46.5302521 L165.498057,46.5302521 Z M163.429269,41.9184874 L163.429269,42.6613445 L163.451054,42.6613445 C163.645448,42.3462185 163.892211,42.1176471 164.191763,41.9752101 C164.490476,41.8327731 164.819773,41.7613445 165.178396,41.7613445 C165.634216,41.7613445 166.026775,41.847479 166.356072,42.0201681 C166.68495,42.1928571 166.957688,42.4214286 167.174705,42.7058824 C167.391723,42.9911765 167.551763,43.3231092 167.656501,43.7016807 C167.761239,44.0802521 167.813608,44.4756303 167.813608,44.8882353 C167.813608,45.2781513 167.761239,45.6529412 167.656501,46.0130252 C167.551763,46.3726891 167.39298,46.6915966 167.180152,46.9689076 C166.967324,47.2462185 166.701708,47.4672269 166.383723,47.6323529 C166.065738,47.797479 165.694546,47.8798319 165.268052,47.8798319 C164.909428,47.8798319 164.578456,47.8067227 164.275553,47.6605042 C163.97265,47.5142857 163.724211,47.2987395 163.529817,47.0134454 L163.507194,47.0134454 L163.507194,49.7693277 L161.914755,49.7693277 L161.914755,41.9184874 L163.429269,41.9184874 Z" id="Fill-24" fill="#FEFEFE" mask="url(#mask-2)"></path>
                <path d="M114.177995,33.9859244 C113.283112,33.9859244 112.64798,33.3144958 112.64798,32.4292017 C112.64798,31.4897059 113.354334,30.8682773 114.177995,30.8682773 C114.992439,30.8682773 115.700888,31.4897059 115.700888,32.4292017 C115.700888,33.3657563 114.992439,33.9859244 114.177995,33.9859244 L114.177995,33.9859244 Z M114.177995,31.1388655 C113.505157,31.1388655 112.981047,31.6686975 112.981047,32.4292017 C112.981047,33.1355042 113.438544,33.714916 114.177995,33.714916 C114.843711,33.714916 115.364888,33.1901261 115.364888,32.4292017 C115.364888,31.6686975 114.843711,31.1388655 114.177995,31.1388655 L114.177995,31.1388655 Z M113.870903,33.3186975 L113.587272,33.3186975 L113.587272,31.5943277 L114.239162,31.5943277 C114.655182,31.5943277 114.867172,31.7392857 114.867172,32.0888655 C114.867172,32.4027311 114.675711,32.5321429 114.418893,32.5611345 L114.902364,33.3186975 L114.580608,33.3186975 L114.136938,32.5834034 L113.870903,32.5834034 L113.870903,33.3186975 Z M114.186374,32.3401261 C114.396688,32.3401261 114.585217,32.3186975 114.585217,32.0691176 C114.585217,31.8594538 114.382444,31.835084 114.210254,31.835084 L113.870903,31.835084 L113.870903,32.3401261 L114.186374,32.3401261 Z" id="Fill-25" fill="#FEFEFE" mask="url(#mask-2)"></path>
                <path d="M23.1110185,18.1001681 C22.9442753,12.2568908 17.2863202,8.93168067 12.0649137,8.93168067 C4.74874414,8.93168067 -8.37905237e-05,14.5337815 -8.37905237e-05,21.5720168 C-8.37905237e-05,28.6064706 4.74874414,34.2136134 12.0649137,34.2136134 C18.2017317,34.2136134 22.7716668,30.5409244 23.1110185,24.2892437 L16.8095521,24.2892437 C16.5749387,27.072437 14.8815322,28.7787395 11.9316868,28.7787395 C7.86323791,28.7787395 6.30515312,25.1728571 6.30515312,21.5720168 C6.30515312,17.969916 7.86323791,14.3648739 11.9316868,14.3648739 C14.5723451,14.3648739 16.4718763,15.6560504 16.8095521,18.1001681 L23.1110185,18.1001681 Z" id="Fill-26" fill="#FEFEFE" mask="url(#mask-2)"></path>
                <polygon id="Fill-27" fill="#FEFEFE" mask="url(#mask-2)" points="23.9083691 33.7016807 29.6693865 33.7016807 29.6693865 9.43613445 23.9083691 9.43613445"></polygon>
                <path d="M36.3554933,21.5015126 C36.6282314,20.0044538 37.6441915,19.2880672 39.2357925,19.2880672 C40.4264559,19.2880672 42.0159621,19.807395 42.0159621,21.1246218 C42.0159621,22.212437 41.4759322,22.5544538 40.487204,22.7582353 C36.4950045,23.5729412 30.2576379,23.130084 30.2576379,28.8733613 C30.2576379,32.5132773 32.9062564,34.2136975 36.2570394,34.2136975 C38.3526404,34.2136975 40.5559122,33.5981513 42.0498973,32.0363866 C42.1190244,32.6082353 42.1856379,33.1590756 42.3917626,33.7015126 L48.1825257,33.7015126 C47.507593,32.3040336 47.507593,30.6771429 47.507593,29.1792437 L47.507593,21.4662185 C47.507593,16.4746218 43.4730793,15.5519328 39.3040818,15.5519328 C37.3098673,15.5519328 35.2712439,15.8947899 33.7135781,16.780084 C32.1584259,17.6935294 31.0691491,19.1893277 30.9723711,21.5015126 L36.3554933,21.5015126 Z M36.0211691,28.6347059 C36.0211691,27.2439496 37.1016479,26.6985714 38.3882514,26.3939496 C39.646785,26.0531933 41.1382564,25.9531933 41.9443212,25.4477311 C42.0838324,29.0838655 41.1713536,30.6410084 38.4251192,30.6410084 C37.136002,30.6410084 36.0211691,30.0670588 36.0211691,28.6347059 L36.0211691,28.6347059 Z" id="Fill-28" fill="#FEFEFE" mask="url(#mask-2)"></path>
                <path d="M65.3037367,16.0596639 L59.4103302,16.0596639 L56.0880359,27.5529412 L56.0201656,27.5529412 L52.7054125,16.0596639 L46.6037865,16.0596639 L51.1452329,28.3357143 C51.4799761,29.2861345 52.5998364,32.0016807 52.5998364,32.952521 C52.5998364,34.1764706 51.6186494,34.9260504 50.3010434,34.9260504 L48.3009636,34.9260504 L48.3009636,39.6159664 L51.0040459,39.6159664 C54.9036569,39.6159664 56.9741207,39.1357143 58.359597,35.2668067 L65.3037367,16.0596639 Z" id="Fill-29" fill="#FEFEFE" mask="url(#mask-2)"></path>
                <path d="M75.0492868,16.0596639 L71.4823242,16.0596639 L71.4823242,10.7294118 L65.727591,10.7294118 L65.727591,16.0596639 L62.8146135,16.0596639 L62.8146135,19.807563 L65.727591,19.807563 L65.727591,27.652521 C65.727591,32.4462185 66.9790025,33.8705882 71.8933167,33.8705882 C72.9474015,33.8705882 73.995202,33.7348739 75.0492868,33.7016807 L75.0492868,29.4512605 C74.5390025,29.4512605 74.0253666,29.5184874 73.5590723,29.5184874 C72.3013766,29.5184874 71.4823242,29.2159664 71.4823242,27.8235294 L71.4823242,19.807563 L75.0492868,19.807563 L75.0492868,16.0596639 Z" id="Fill-30" fill="#FEFEFE" mask="url(#mask-2)"></path>
                <path d="M74.2455681,24.9010504 C74.2455681,30.2002101 78.0433736,34.2136555 83.4977177,34.2136555 C88.9512239,34.2136555 92.7804509,30.2002101 92.7804509,24.9010504 C92.7804509,19.5989496 88.9512239,15.5523109 83.4977177,15.5523109 C78.0433736,15.5523109 74.2455681,19.5989496 74.2455681,24.9010504 M80.0065855,24.9010504 C80.0065855,22.6527311 80.8197726,19.9728992 83.4977177,19.9728992 C86.1735681,19.9728992 87.0223661,22.6527311 87.0223661,24.9010504 C87.0223661,27.1460084 86.1735681,29.7943277 83.4977177,29.7943277 C80.8197726,29.7943277 80.0065855,27.1460084 80.0065855,24.9010504" id="Fill-31" fill="#FEFEFE" mask="url(#mask-2)"></path>
                <path d="M93.2688239,33.7015966 L99.0290035,33.7015966 L99.0290035,24.0826891 C99.0290035,22.1452941 99.979607,20.3146218 102.148525,20.3146218 C105.300724,20.3146218 105.027567,22.7583193 105.027567,25.172605 L105.027567,33.7015966 L110.787328,33.7015966 L110.787328,22.3818487 C110.787328,19.8394118 110.31433,15.5520168 104.449831,15.5520168 C102.352136,15.5520168 99.979607,16.6751261 98.9288738,18.4776471 L98.8647741,18.4776471 L98.8647741,16.0595798 L93.2688239,16.0595798 L93.2688239,33.7015966 Z" id="Fill-32" fill="#FEFEFE" mask="url(#mask-2)"></path>
                <polygon id="Fill-33" fill="#FEFEFE" mask="url(#mask-2)" points="38.8027212 11.5387395 68.7201277 8.40336134e-05 98.2437187 11.5387395 98.2437187 13.6908403 68.5236389 7.35092437 38.8027212 13.6908403"></polygon>
            </g>
        </g>
    </g>
</svg>