<?xml version="1.0" encoding="utf-8"?>
<!-- Generator: Adobe Illustrator 26.5.0, SVG Export Plug-In . SVG Version: 6.00 Build 0)  -->
<svg version="1.1" id="Layer_1" xmlns="http://www.w3.org/2000/svg" xmlns:xlink="http://www.w3.org/1999/xlink" x="0px" y="0px"
	 viewBox="0 0 464 119.6" style="enable-background:new 0 0 464 119.6;" xml:space="preserve">
<style type="text/css">
	.st0{fill:#FFFFFF;}
	.st1{display:none;}
	.st2{display:inline;fill:#FFFFFF;}
</style>
<g>
	<path class="st0" d="M459.4,1.1h-6.7H231.2h-0.1h-9.9h-0.1H11.3h0H6.7H1.3v10v96.8v10h5.4h4.6h0h209.8h0.1h9.9h0.1h221.6h5.7h4.3
		v-10V11.1v-10H459.4z M11.3,107.9L11.3,107.9l0-96.8h0h170h39.8v96.8v0H11.3z M231.2,107.9L231.2,107.9V11.1H269h183.8v96.8H231.2z
		"/>
	<g id="bw_11_">
		<g>
			<path class="st0" d="M445.3,91.8c0.3,0,0.7,0,0.7-0.4c0-0.3-0.3-0.4-0.6-0.4h-0.6v0.8H445.3z M444.8,93.4h-0.5v-2.8h1.1
				c0.7,0,1,0.2,1,0.8c0,0.5-0.3,0.7-0.7,0.8l0.8,1.2h-0.5l-0.7-1.2h-0.4V93.4z M445.3,89.9c-1.1,0-2,0.9-2,2.1c0,1.2,0.8,2.1,2,2.1
				c1.1,0,2-0.9,2-2.1C447.2,90.7,446.4,89.9,445.3,89.9 M445.3,94.5c-1.5,0-2.5-1.1-2.5-2.6c0-1.5,1.2-2.6,2.5-2.6
				c1.3,0,2.5,1,2.5,2.6C447.8,93.5,446.6,94.5,445.3,94.5"/>
		</g>
		<g>
			<g>
				<g>
					<g>
						<g>
							<g>
								<path class="st0" d="M61.9,57.2c-0.3-9.6-9.6-15-18.2-15c-12,0-19.8,9.2-19.8,20.7c0,11.5,7.8,20.7,19.8,20.7
									c10.1,0,17.6-6,18.2-16.3H51.6c-0.4,4.6-3.2,7.4-8,7.4c-6.7,0-9.2-5.9-9.2-11.8c0-5.9,2.6-11.8,9.2-11.8
									c4.3,0,7.5,2.1,8,6.1H61.9L61.9,57.2z"/>
								<polygon class="st0" points="63.2,43 72.7,43 72.7,82.7 63.2,82.7 63.2,43 								"/>
								<path class="st0" d="M83.1,74.4c0-2.3,1.8-3.2,3.9-3.7c2.1-0.6,4.5-0.7,5.8-1.6c0.2,6-1.3,8.5-5.8,8.5
									C85,77.7,83.1,76.8,83.1,74.4L83.1,74.4z M83.7,62.7c0.4-2.5,2.1-3.6,4.7-3.6c2,0,4.6,0.9,4.6,3c0,1.8-0.9,2.3-2.5,2.7
									c-6.6,1.3-16.8,0.6-16.8,10c0,6,4.4,8.8,9.9,8.8c3.4,0,7.1-1,9.5-3.6c0.1,0.9,0.2,1.8,0.6,2.7h9.5c-1.1-2.3-1.1-5-1.1-7.4
									V62.7c0-8.2-6.6-9.7-13.5-9.7c-3.3,0-6.6,0.6-9.2,2c-2.6,1.5-4.3,3.9-4.5,7.7H83.7L83.7,62.7z"/>
								<path class="st0" d="M131.3,53.8h-9.7l-5.5,18.8H116l-5.4-18.8h-10l7.5,20.1c0.6,1.6,2.4,6,2.4,7.6c0,2-1.6,3.2-3.8,3.2
									h-3.3v7.7h4.4c6.4,0,9.8-0.8,12.1-7.1L131.3,53.8L131.3,53.8z"/>
								<path class="st0" d="M147.3,53.8h-5.9v-8.7H132v8.7h-4.8V60h4.8v12.9c0,7.9,2.1,10.2,10.1,10.2c1.7,0,3.5-0.2,5.2-0.3v-7
									c-0.8,0-1.7,0.1-2.4,0.1c-2.1,0-3.4-0.5-3.4-2.8V60h5.9V53.8L147.3,53.8z"/>
								<path class="st0" d="M155.4,68.3c0-3.7,1.3-8.1,5.7-8.1c4.4,0,5.8,4.4,5.8,8.1c0,3.7-1.4,8-5.8,8
									C156.8,76.3,155.4,72,155.4,68.3L155.4,68.3z M146,68.3c0,8.7,6.2,15.3,15.2,15.3c9,0,15.3-6.6,15.3-15.3
									c0-8.7-6.3-15.3-15.3-15.3C152.2,53,146,59.6,146,68.3L146,68.3z"/>
								<path class="st0" d="M177.2,82.7h9.5V67c0-3.2,1.6-6.2,5.1-6.2c5.2,0,4.7,4,4.7,8v14h9.5V64.2c0-4.2-0.8-11.2-10.4-11.2
									c-3.4,0-7.3,1.8-9.1,4.8h-0.1v-4h-9.2V82.7L177.2,82.7z"/>
							</g>
							<polygon class="st0" points="87.7,46.4 136.9,27.5 185.4,46.4 185.4,49.9 136.6,39.5 87.7,49.9 87.7,46.4 							"/>
						</g>
					</g>
				</g>
			</g>
		</g>
		<g class="st1">
			<path class="st2" d="M126.2,86h3.3v7.6h0.1c0.8-1.3,2.5-2.3,4.4-2.3c3.2,0,5.2,1.7,5.2,5v10.1h-3.3v-9.3c-0.1-2.3-1-3.3-2.9-3.3
				c-2.2,0-3.6,1.7-3.6,3.9v8.7h-3.3V86z"/>
			<path class="st2" d="M139.9,99c0-4.5,2.7-7.8,7.4-7.8c4.7,0,7.4,3.3,7.4,7.8c0,4.5-2.7,7.8-7.4,7.8
				C142.6,106.8,139.9,103.5,139.9,99z M151.6,99c0-2.5-1.3-5.2-4.2-5.2c-2.9,0-4.2,2.7-4.2,5.2c0,2.6,1.3,5.2,4.2,5.2
				C150.3,104.2,151.6,101.5,151.6,99z"/>
			<path class="st2" d="M156,91.6h3.1v2.1h0.1c1-1.5,2.2-2.5,4.5-2.5c1.8,0,3.5,0.8,4.1,2.5c1.1-1.5,2.5-2.5,4.6-2.5
				c3.1,0,4.9,1.4,4.9,5v10.2h-3.3v-8.6c0-2.3-0.1-4-2.7-4c-2.2,0-3.1,1.5-3.1,3.9v8.6H165v-9.5c0-2-0.6-3.1-2.6-3.1
				c-1.7,0-3.2,1.4-3.2,3.8v8.8H156V91.6z"/>
			<path class="st2" d="M181.8,99.8c0,2.3,1.3,4.4,4,4.4c1.9,0,3-0.8,3.6-2.5h3.1c-0.7,3.2-3.5,5-6.7,5c-4.6,0-7.2-3.2-7.2-7.8
				c0-4.2,2.7-7.8,7.1-7.8c4.7,0,7.5,4.2,7,8.6H181.8z M189.4,97.7c-0.1-2.1-1.5-3.9-3.7-3.9c-2.3,0-3.8,1.7-3.9,3.9H189.4z"/>
			<path class="st2" d="M195.8,101.6c0.2,1.9,1.6,2.6,3.3,2.6c1.2,0,3.4-0.3,3.3-1.9c-0.1-1.7-2.5-1.9-4.8-2.5
				c-2.4-0.5-4.7-1.4-4.7-4.4c0-3.2,3.5-4.2,6.2-4.2c3,0,5.8,1.3,6.2,4.5h-3.4c-0.3-1.5-1.6-2-3-2c-0.9,0-2.7,0.2-2.7,1.5
				c0,1.6,2.4,1.8,4.8,2.4c2.4,0.5,4.8,1.4,4.8,4.3c0,3.5-3.5,4.8-6.6,4.8c-3.7,0-6.5-1.7-6.5-5.1H195.8z"/>
		</g>
	</g>
	<g>
		<path class="st0" d="M294,56.1c3.2-1.5,5.6-3.5,7.2-5.8c1.6-2.4,2.4-5.4,2.4-8.9c0-3.3-0.5-6.1-1.6-8.3c-1.1-2.2-2.6-4-4.6-5.4
			s-4.4-2.3-7.1-2.9c-2.8-0.6-5.8-0.9-9.2-0.9h-15.7h-17.6h-3.9v12.1h3.9v46.6h-3.9v12.1h3.9h17.6H282c3.2,0,6.3-0.4,9.3-1.2
			c3-0.8,5.7-2,8-3.7c2.3-1.7,4.2-3.8,5.6-6.4c1.4-2.6,2.1-5.7,2.1-9.3c0-4.4-1.1-8.2-3.2-11.3C301.6,59.6,298.3,57.4,294,56.1z
			 M265.3,35.9h12.5c1.4,0,2.7,0.1,4,0.3c1.3,0.2,2.4,0.6,3.4,1.2c1,0.6,1.8,1.4,2.4,2.5c0.6,1.1,0.9,2.4,0.9,4.1
			c0,3-0.9,5.1-2.7,6.4c-1.8,1.3-4.1,2-6.8,2h-15.8V35.9H265.3z M290.4,77.7c-0.6,1.2-1.5,2.1-2.5,2.8c-1.1,0.7-2.3,1.2-3.7,1.5
			c-1.4,0.3-2.8,0.4-4.4,0.4h-14.6h-2V63h16.9c3.4,0,6.1,0.8,8.1,2.3c2,1.6,3.1,4.1,3.1,7.8C291.4,75,291.1,76.5,290.4,77.7z"/>
		<path class="st0" d="M357.9,43.3h-2.1h-11.9H340v12.1h3.9v14.8c0,5.2-0.9,9-2.6,11.2c-1.7,2.3-4.5,3.4-8.3,3.4
			c-3.4,0-5.2-1-6.5-3.1c-1.3-2.1-2-5.2-2-9.5V55.4V43.3h-14.6H306v12.1h3.9v19.4c0,3.2,0.3,6.1,0.8,8.7c0.6,2.6,1.5,4.8,2.9,6.6
			c1.4,1.8,3.3,3.2,5.7,4.2c2.4,1,5.5,1.5,9.3,1.5c3,0,5.9-0.7,8.7-2c2.8-1.3,5.2-3.5,6.9-6.4h0.3v7.1h8.8h4.6h3.9V82.5h-3.9V43.3z"
			/>
		<polygon class="st0" points="382,43.3 381.2,43.3 368,43.3 364.1,43.3 364.1,55.4 368,55.4 368,82.5 364,82.5 364,94.5 368,94.5 
			382,94.5 385.9,94.5 385.9,82.5 382,82.5 		"/>
		<polygon class="st0" points="406,23.8 405.6,23.8 391.9,23.8 388,23.8 388,35.9 391.9,35.9 391.9,82.5 388,82.5 388,94.5 
			391.9,94.5 406,94.5 409.9,94.5 409.9,82.5 406,82.5 		"/>
		<path class="st0" d="M440.2,55.4V43.3h-10.3V28h-14.1v15.4H409v12.1h6.9V83c0,2.6,0.4,4.7,1.3,6.2c0.9,1.6,2,2.8,3.5,3.7
			c1.5,0.9,3.2,1.4,5.2,1.7c1.9,0.3,4,0.4,6.2,0.4c1.4,0,2.8,0,4.3-0.1c1.5-0.1,2.8-0.2,4-0.4V83.6c-0.7,0.1-1.4,0.2-2.1,0.3
			c-0.7,0.1-1.5,0.1-2.3,0.1c-2.4,0-4-0.4-4.8-1.2c-0.8-0.8-1.2-2.4-1.2-4.8V55.4H440.2z"/>
		<rect x="368.2" y="23.8" class="st0" width="13.7" height="10.1"/>
	</g>
</g>
</svg>
